<svg xmlns="http://www.w3.org/2000/svg" width="743.224" height="164.886" viewBox="0 0 743.224 164.886">
  <g id="Groupe_40873" data-name="Groupe 40873" transform="translate(-732.777 -694.114)">
    <path id="stats" d="M0,94.3c48.747,0,72.82-14.048,123.219-14.048s77.288,27.185,115.294,27.185,85.658-22.251,123.7-27.185C445.3,69.478,440.4,21.121,491.605,6.485c42.136-12.046,78.854,19.408,113.412,23.142C681.57,37.9,706.266-17.729,743.2,5.885l.021,159H0Z" transform="translate(732.777 694.114)" fill="#091037" opacity="0.62"/>
    <path id="Mask" d="M0,23.612C45.83,17.174,58.426,0,108.822,0s75.4,44.783,134.865,23.612,80.467,25,118.5,21.171c83.081-8.353,78.189,12.942,129.388,1.6,42.134-9.337,57.255-22.768,96.128-22.768,63.221,0,90.256,51.146,155.455,57.926l.021,52H0Z" transform="translate(732.815 725.46)" fill="#56b5af" opacity="0.73"/>
  </g>
</svg>
