<svg xmlns="http://www.w3.org/2000/svg" width="279.092" height="208.847" viewBox="0 0 279.092 208.847">
  <g id="OBJECTS" transform="translate(-26.86 -81.187)">
    <g id="Groupe_57" data-name="Groupe 57" transform="translate(26.86 81.187)">
      <g id="Groupe_1" data-name="Groupe 1" transform="translate(3.968 2.296)">
        <path id="Tracé_1" data-name="Tracé 1" d="M281.682,297.967c29.7-22.582,42.926-85.2-5.3-115.907-31.925-20.325-51.781-8.73-87.7-22.176-43.845-16.41-50.38-65.99-103.712-41.594-28.254,12.92-47.841,49.336-51.287,90.723-3.377,40.531,10.988,68.341,40.343,87.371C142.968,299.318,212.04,298.786,281.682,297.967Z" transform="translate(-33.205 -94.899)" fill="#fff" opacity="0.7"/>
        <path id="Tracé_2" data-name="Tracé 2" d="M234.989,109.812c-4.486,18.011,12.172,35.84,29.722,43.232s37.674,6.516,56.476,2.989c8.112-1.52,16.451-3.658,22.754-8.83s9.956-14.152,6.5-21.407c-3.048-6.4-10.469-9.675-17.543-11.357s-14.588-2.37-20.891-5.91c-5.976-3.358-10.216-8.918-15.413-13.32-9.6-8.124-23.093-12.151-35.578-9.581S238.8,94.5,234.989,109.812Z" transform="translate(-108.521 -84.858)" fill="#fff" opacity="0.7"/>
      </g>
      <g id="Groupe_56" data-name="Groupe 56" transform="translate(0 0)">
        <g id="Groupe_17" data-name="Groupe 17" transform="translate(18.453)">
          <g id="Groupe_2" data-name="Groupe 2" transform="translate(160.447 72.181)">
            <path id="Tracé_3" data-name="Tracé 3" d="M413.039,234.517V220.892h-5.167a26.434,26.434,0,0,0-2.778-6.7l3.653-3.659-9.635-9.636-3.659,3.653a26.445,26.445,0,0,0-6.7-2.779v-5.166H375.129v5.166a26.438,26.438,0,0,0-6.7,2.779l-3.659-3.653-9.636,9.636,3.653,3.659a26.638,26.638,0,0,0-2.779,6.7h-5.166v13.625h5.166a26.639,26.639,0,0,0,2.779,6.7l-3.653,3.659,9.636,9.635,3.659-3.653a26.644,26.644,0,0,0,6.7,2.779V258.8h13.626v-5.166a26.651,26.651,0,0,0,6.7-2.779l3.659,3.653,9.635-9.635-3.653-3.659a26.435,26.435,0,0,0,2.778-6.7Zm-31.093,4.992a11.8,11.8,0,1,1,11.8-11.808A11.809,11.809,0,0,1,381.946,239.509Z" transform="translate(-327.133 -196.608)" fill="#96e0c6"/>
            <path id="Tracé_4" data-name="Tracé 4" d="M364.426,303.323l-2.592-6.757-2.563.983a14.034,14.034,0,0,0-2.652-2.793l1.115-2.51-6.611-2.946L350,291.808a14.044,14.044,0,0,0-3.85-.1l-.982-2.562-6.758,2.592.983,2.562a14.037,14.037,0,0,0-2.793,2.652l-2.51-1.116-2.945,6.611,2.508,1.12a14.139,14.139,0,0,0-.1,3.85l-2.562.983,2.592,6.757,2.562-.983a14.163,14.163,0,0,0,2.652,2.793l-1.116,2.51,6.612,2.945,1.12-2.508a14.166,14.166,0,0,0,3.85.1l.983,2.562L357,319.986l-.982-2.562a14.161,14.161,0,0,0,2.793-2.652l2.51,1.116,2.945-6.611-2.508-1.12a14.043,14.043,0,0,0,.1-3.85Zm-14.47,8.392a6.271,6.271,0,1,1,3.606-8.1A6.273,6.273,0,0,1,349.956,311.715Z" transform="translate(-319.694 -231.274)" fill="none" stroke="#96e0c6" stroke-miterlimit="10" stroke-width="1"/>
            <path id="Tracé_5" data-name="Tracé 5" d="M335.52,268.176l-1.752-4.566-1.731.665a9.5,9.5,0,0,0-1.792-1.887l.754-1.7-4.468-1.99-.757,1.695a9.488,9.488,0,0,0-2.6-.07l-.664-1.732-4.565,1.752.664,1.732a9.483,9.483,0,0,0-1.887,1.792l-1.7-.754-1.99,4.468,1.695.756a9.565,9.565,0,0,0-.07,2.6l-1.731.664,1.751,4.566,1.732-.664a9.55,9.55,0,0,0,1.792,1.887l-.754,1.7,4.468,1.99.756-1.694a9.566,9.566,0,0,0,2.6.07l.664,1.731,4.566-1.752-.664-1.731a9.553,9.553,0,0,0,1.887-1.792l1.7.754,1.99-4.468-1.694-.757a9.491,9.491,0,0,0,.07-2.6Zm-9.777,5.67a4.237,4.237,0,1,1,2.436-5.474A4.239,4.239,0,0,1,325.743,273.847Z" transform="translate(-312.928 -219.83)" fill="none" stroke="#96e0c6" stroke-miterlimit="10" stroke-width="1"/>
          </g>
          <g id="Groupe_4" data-name="Groupe 4" transform="translate(138.39 19.058)">
            <path id="Tracé_6" data-name="Tracé 6" d="M320.717,133.191a21.529,21.529,0,1,1-21.529-21.529A21.507,21.507,0,0,1,320.717,133.191Z" transform="translate(-277.659 -111.662)" fill="#20986e" stroke="#20986e" stroke-miterlimit="10" stroke-width="1"/>
            <g id="Groupe_3" data-name="Groupe 3" transform="translate(8.179 6.586)">
              <circle id="Ellipse_1" data-name="Ellipse 1" cx="7.047" cy="7.047" r="7.047" transform="translate(5.493 1.727) rotate(-7.037)" fill="#fff"/>
              <path id="Tracé_7" data-name="Tracé 7" d="M317.438,159.437a21.544,21.544,0,0,1-26.7,0c1.377-6.058,2.644-11.288,3.963-12.614,1.862-1.862,6.808-2.948,9.381-2.948s7.751,1.319,8.708,2.276C314.742,148.1,316.423,153.47,317.438,159.437Z" transform="translate(-290.737 -130.316)" fill="#fff"/>
            </g>
          </g>
          <g id="Groupe_7" data-name="Groupe 7" transform="translate(126.916 77.775)">
            <g id="Groupe_5" data-name="Groupe 5">
              <path id="Tracé_8" data-name="Tracé 8" d="M262.61,221.437V210.805a5.252,5.252,0,0,1,5.253-5.253h33.5a5.252,5.252,0,0,1,5.253,5.253v10.631a5.252,5.252,0,0,1-5.253,5.253H267.869A5.254,5.254,0,0,1,262.61,221.437Z" transform="translate(-260.546 -205.552)" fill="#20986e"/>
              <path id="Tracé_9" data-name="Tracé 9" d="M275.52,230.062l-16.21,15.791,26.272-13.277" transform="translate(-259.31 -214.734)" fill="#20986e"/>
            </g>
            <g id="Groupe_6" data-name="Groupe 6" transform="translate(6.128 4.152)">
              <path id="Tracé_10" data-name="Tracé 10" d="M269.11,213.03v-.056a.782.782,0,0,1,.782-.782h16.56a.782.782,0,0,1,.782.782v.056a.782.782,0,0,1-.782.782h-16.56A.782.782,0,0,1,269.11,213.03Z" transform="translate(-269.11 -212.192)" fill="#fff"/>
              <path id="Tracé_11" data-name="Tracé 11" d="M299.28,213.03v-.056a.782.782,0,0,1,.782-.782h14.452a.782.782,0,0,1,.782.782v.056a.782.782,0,0,1-.782.782H300.062A.782.782,0,0,1,299.28,213.03Z" transform="translate(-280.412 -212.192)" fill="#fff"/>
              <path id="Tracé_12" data-name="Tracé 12" d="M289.19,218.72v-.056a.782.782,0,0,1,.782-.782h20.762a.782.782,0,0,1,.782.782v.056a.782.782,0,0,1-.782.782H289.972A.782.782,0,0,1,289.19,218.72Z" transform="translate(-276.632 -214.324)" fill="#fff"/>
              <path id="Tracé_13" data-name="Tracé 13" d="M269.11,218.72v-.056a.782.782,0,0,1,.782-.782h9.274a.782.782,0,0,1,.782.782v.056a.782.782,0,0,1-.782.782h-9.274A.782.782,0,0,1,269.11,218.72Z" transform="translate(-269.11 -214.324)" fill="#fff"/>
              <path id="Tracé_14" data-name="Tracé 14" d="M293.8,224.41v-.056a.782.782,0,0,1,.782-.782h17.879a.782.782,0,0,1,.782.782v.056a.782.782,0,0,1-.782.782H294.582A.782.782,0,0,1,293.8,224.41Z" transform="translate(-278.359 -216.455)" fill="#fff"/>
              <path id="Tracé_15" data-name="Tracé 15" d="M269.11,224.41v-.056a.782.782,0,0,1,.782-.782h12.351a.782.782,0,0,1,.782.782v.056a.782.782,0,0,1-.782.782H269.892A.782.782,0,0,1,269.11,224.41Z" transform="translate(-269.11 -216.455)" fill="#fff"/>
              <path id="Tracé_16" data-name="Tracé 16" d="M269.11,230.1v-.056a.782.782,0,0,1,.782-.782h4.584a.782.782,0,0,1,.782.782v.056a.782.782,0,0,1-.782.782h-4.584A.782.782,0,0,1,269.11,230.1Z" transform="translate(-269.11 -218.587)" fill="#fff"/>
              <path id="Tracé_17" data-name="Tracé 17" d="M281.53,230.1v-.056a.782.782,0,0,1,.782-.782h25.553a.782.782,0,0,1,.782.782v.056a.782.782,0,0,1-.782.782H282.312A.782.782,0,0,1,281.53,230.1Z" transform="translate(-273.763 -218.587)" fill="#fff"/>
            </g>
          </g>
          <g id="Groupe_12" data-name="Groupe 12" transform="translate(0 42.355)">
            <g id="Groupe_11" data-name="Groupe 11" transform="translate(0 0)">
              <circle id="Ellipse_2" data-name="Ellipse 2" cx="20.712" cy="20.712" r="20.712" transform="translate(0 37.558) rotate(-65.047)" fill="#20986e"/>
              <g id="Groupe_10" data-name="Groupe 10" transform="translate(16.237 10.935)">
                <g id="Groupe_8" data-name="Groupe 8" transform="translate(0 20.349)">
                  <circle id="Ellipse_3" data-name="Ellipse 3" cx="5.019" cy="5.019" r="5.019" transform="translate(0 3.327) rotate(-19.353)" fill="#fff"/>
                  <path id="Tracé_18" data-name="Tracé 18" d="M88.2,209.065l-.242-3.183,2.636-1.8,2.878,1.382.242,3.183-2.636,1.8Z" transform="translate(-84.44 -200.865)" fill="#20986e"/>
                </g>
                <g id="Groupe_9" data-name="Groupe 9" transform="translate(9.745 0)">
                  <circle id="Ellipse_4" data-name="Ellipse 4" cx="5.019" cy="5.019" r="5.019" transform="translate(0 3.379) rotate(-19.671)" fill="#fff"/>
                  <path id="Tracé_19" data-name="Tracé 19" d="M104.192,175.032l.173-4.047,3.051-2.666,2.878,1.382-.173,4.047-3.051,2.666Z" transform="translate(-100.265 -167.119)" fill="#20986e"/>
                </g>
                <path id="Tracé_20" data-name="Tracé 20" d="M95.822,195.924l-3.84-1.844,2.837-6.546q.27-.623.588-1.223L98.74,180l3.84,1.844-2.737,6.446q-.317.749-.7,1.465Z" transform="translate(-85.947 -171.496)" fill="#fff"/>
              </g>
            </g>
            <path id="Tracé_21" data-name="Tracé 21" d="M123.374,206.142c.74-.343,12.624.2,12.624.2l-8.566-7.865Z" transform="translate(-81.47 -167.481)" fill="#20986e"/>
          </g>
          <g id="Groupe_16" data-name="Groupe 16" transform="translate(48.901)">
            <g id="Groupe_14" data-name="Groupe 14" transform="translate(0)">
              <g id="Groupe_13" data-name="Groupe 13" transform="translate(0)">
                <circle id="Ellipse_5" data-name="Ellipse 5" cx="20.358" cy="20.358" r="20.358" transform="translate(0 37.369) rotate(-66.607)" fill="#20986e"/>
              </g>
            </g>
            <g id="Groupe_15" data-name="Groupe 15" transform="translate(11.744 9.418)">
              <rect id="Rectangle_2" data-name="Rectangle 2" width="1.36" height="17.097" transform="translate(14.343)" fill="#fff"/>
              <rect id="Rectangle_3" data-name="Rectangle 3" width="1.36" height="17.329" transform="matrix(-0.569, -0.822, 0.822, -0.569, 0.774, 28.078)" fill="#fff"/>
              <path id="Tracé_22" data-name="Tracé 22" d="M178.114,122.866a1.874,1.874,0,1,1-1.874-1.874A1.874,1.874,0,0,1,178.114,122.866Z" transform="translate(-161.218 -105.517)" fill="#fff"/>
            </g>
          </g>
        </g>
        <g id="Groupe_55" data-name="Groupe 55" transform="translate(0 56.496)">
          <g id="Groupe_32" data-name="Groupe 32" transform="translate(0 47.605)">
            <g id="Groupe_29" data-name="Groupe 29" transform="translate(208.581 37.517)" opacity="0.35">
              <g id="Groupe_24" data-name="Groupe 24" transform="translate(0 4.303)">
                <path id="Tracé_33" data-name="Tracé 33" d="M400.57,349.649c6.56-17.066,21.65-30.912,38.292-35.127C431.57,331.357,416.686,344.928,400.57,349.649Z" transform="translate(-375.442 -314.522)" fill="#a2c7eb"/>
                <path id="Tracé_34" data-name="Tracé 34" d="M419.776,320.192a242.481,242.481,0,0,0-26.991,23.9c-10.244,10.519-19.906,22.251-32.394,29.268" transform="translate(-360.39 -316.646)" fill="none" stroke="#6f8bbf" stroke-linecap="round" stroke-miterlimit="10" stroke-width="1"/>
              </g>
              <g id="Groupe_25" data-name="Groupe 25" transform="translate(16.504 34.511)">
                <path id="Tracé_35" data-name="Tracé 35" d="M386.78,376.407c12.5-11,29.486-15.828,44.27-12.589C418.518,376.007,400.457,381.379,386.78,376.407Z" transform="translate(-386.78 -362.827)" fill="#a2c7eb"/>
                <path id="Tracé_36" data-name="Tracé 36" d="M426.766,366.862q-19.371,5.853-38.886,10.794" transform="translate(-387.192 -364.338)" fill="none" stroke="#6f8bbf" stroke-linecap="round" stroke-miterlimit="10" stroke-width="1"/>
              </g>
              <g id="Groupe_26" data-name="Groupe 26" transform="translate(5.697 52.404)">
                <path id="Tracé_37" data-name="Tracé 37" d="M372.12,397.506c13.877-8.555,31.963-8.011,42.857,1.288C400.168,406.724,382.038,406.18,372.12,397.506Z" transform="translate(-370.482 -391.438)" fill="#a2c7eb"/>
                <path id="Tracé_38" data-name="Tracé 38" d="M410.587,401.776a130.745,130.745,0,0,1-41.087-1.044" transform="translate(-369.5 -394.92)" fill="none" stroke="#6f8bbf" stroke-linecap="round" stroke-miterlimit="10" stroke-width="1"/>
              </g>
              <g id="Groupe_27" data-name="Groupe 27" transform="translate(16.65)">
                <path id="Tracé_39" data-name="Tracé 39" d="M389.607,351.912c9.012-12.683,12.207-29.987,8.174-44.27C387.906,319.637,383.966,337.216,389.607,351.912Z" transform="translate(-387.014 -307.642)" fill="#a2c7eb"/>
                <path id="Tracé_40" data-name="Tracé 40" d="M398.621,313.962a166.283,166.283,0,0,0-7.411,41.275" transform="translate(-388.586 -310.01)" fill="none" stroke="#6f8bbf" stroke-linecap="round" stroke-miterlimit="10" stroke-width="1"/>
              </g>
              <g id="Groupe_28" data-name="Groupe 28" transform="translate(2.332 10.15)">
                <path id="Tracé_41" data-name="Tracé 41" d="M371.086,367.748c5.453-14.8,4.365-31.569-2.852-43.876a67.653,67.653,0,0,0-4.109,24.152C364.257,357.317,367.384,364.621,371.086,367.748Z" transform="translate(-364.119 -323.872)" fill="#a2c7eb"/>
                <path id="Tracé_42" data-name="Tracé 42" d="M370.739,329.652a125.412,125.412,0,0,0,2.733,40.681" transform="translate(-366.385 -326.037)" fill="none" stroke="#6f8bbf" stroke-linecap="round" stroke-miterlimit="10" stroke-width="1"/>
              </g>
            </g>
            <g id="Groupe_31" data-name="Groupe 31" opacity="0.47">
              <path id="Tracé_43" data-name="Tracé 43" d="M75.075,298.013c-6.688-20.455-25.351-36.983-47.062-41.674C37.141,274.036,53.7,288.12,75.075,298.013Z" transform="translate(-27.292 -250.905)" fill="#a2c7eb"/>
              <path id="Tracé_44" data-name="Tracé 44" d="M75.776,323.369a61.864,61.864,0,0,0-48.916-4.874A69.076,69.076,0,0,0,75.776,323.369Z" transform="translate(-26.86 -273.088)" fill="#a2c7eb"/>
              <path id="Tracé_45" data-name="Tracé 45" d="M84.438,334.787a64.716,64.716,0,0,0-45.27,10.655C53.748,350.741,71.24,347.3,84.438,334.787Z" transform="translate(-31.471 -280.069)" fill="#a2c7eb"/>
              <path id="Tracé_46" data-name="Tracé 46" d="M95.3,350.64c-15.679-.066-31.094,7.386-40.31,19.485a34.465,34.465,0,0,0,20.789-2.336C82.184,364.889,87.548,359.942,95.3,350.64Z" transform="translate(-37.399 -286.232)" fill="#a2c7eb"/>
              <path id="Tracé_47" data-name="Tracé 47" d="M111.319,376.134c-15.46-2.65-31.932,2.14-43.08,12.531A34.617,34.617,0,0,0,89.151,389.8C95.959,388.006,102.088,384.019,111.319,376.134Z" transform="translate(-42.362 -295.514)" fill="#a2c7eb"/>
              <path id="Tracé_48" data-name="Tracé 48" d="M104.346,295.728a51.852,51.852,0,0,1-7.179-48.078c4.429,7.5,8.25,15.43,10.034,23.859S108.638,288.925,104.346,295.728Z" transform="translate(-52.079 -247.65)" fill="#a2c7eb"/>
              <path id="Tracé_49" data-name="Tracé 49" d="M120.051,321.374a47.425,47.425,0,0,1,13.139-40.7C134.405,295.8,129.777,311.206,120.051,321.374Z" transform="translate(-61.547 -260.021)" fill="#a2c7eb"/>
              <g id="Groupe_30" data-name="Groupe 30" transform="translate(5.474 7.254)">
                <path id="Tracé_50" data-name="Tracé 50" d="M35.613,262.2c31.071,19.88,55.371,49.512,68.2,83.179" transform="translate(-35.613 -260.355)" fill="none" stroke="#62c3a1" stroke-linecap="round" stroke-miterlimit="10" stroke-width="1"/>
                <path id="Tracé_51" data-name="Tracé 51" d="M100.5,259.25a246.529,246.529,0,0,1,6.857,46.727" transform="translate(-59.921 -259.25)" fill="none" stroke="#62c3a1" stroke-linecap="round" stroke-miterlimit="10" stroke-width="1"/>
                <path id="Tracé_52" data-name="Tracé 52" d="M131.013,290.165a91.035,91.035,0,0,1-11.177,35.382" transform="translate(-67.165 -270.832)" fill="none" stroke="#62c3a1" stroke-linecap="round" stroke-miterlimit="10" stroke-width="1"/>
                <path id="Tracé_53" data-name="Tracé 53" d="M37.318,320.829a251.412,251.412,0,0,0,43.2,4.393" transform="translate(-36.252 -282.319)" fill="none" stroke="#62c3a1" stroke-linecap="round" stroke-miterlimit="10" stroke-width="1"/>
                <path id="Tracé_54" data-name="Tracé 54" d="M51.044,344.628a115.991,115.991,0,0,0,38-9.363" transform="translate(-41.394 -287.727)" fill="none" stroke="#62c3a1" stroke-linecap="round" stroke-miterlimit="10" stroke-width="1"/>
                <path id="Tracé_55" data-name="Tracé 55" d="M63.627,367.4q18.18-9.068,36.361-18.144" transform="translate(-46.108 -292.967)" fill="none" stroke="#62c3a1" stroke-linecap="round" stroke-miterlimit="10" stroke-width="1"/>
                <path id="Tracé_56" data-name="Tracé 56" d="M76.232,388.305c15.824-3.053,20.525-6.7,38.088-11.738" transform="translate(-50.83 -303.2)" fill="none" stroke="#62c3a1" stroke-linecap="round" stroke-miterlimit="10" stroke-width="1"/>
              </g>
            </g>
          </g>
          <g id="Groupe_54" data-name="Groupe 54" transform="translate(48.293)">
            <g id="Groupe_33" data-name="Groupe 33" transform="translate(61.823 70.245)">
              <path id="Tracé_57" data-name="Tracé 57" d="M225.762,348.992s1.37,12.551,2.9,13.558c2.739,1.807,34.446,5.985,34.446,5.985l-1.038,8.249s-43.426,3.9-45.271,1.732c-3.2-3.765-8.83-21.926-8.83-21.926Z" transform="translate(-204.824 -308.255)" fill="#a9834e"/>
              <path id="Tracé_58" data-name="Tracé 58" d="M202.94,292.276l3.508-8.424s9.518,4.471,12.658,9.993c3.358,5.9,7.467,37.291,7.467,37.291s-16.8,3.871-19.893,2.226S202.94,292.276,202.94,292.276Z" transform="translate(-202.94 -283.852)" fill="#f2ae30"/>
            </g>
            <path id="Tracé_59" data-name="Tracé 59" d="M139.183,233.892a18.578,18.578,0,0,0-7.692-1.488c-2.633.2-5.322,1.595-6.216,3.909-.638,1.638-.344,3.571-1.351,5.047-.963,1.413-2.877,2-4.665,2.12s-3.6-.113-5.384.119c-5.5.732-9.431,6.71-7.623,11.607.719,1.951,2.2,3.815,1.857,5.847-.356,2.176-2.639,3.608-3.577,5.628-1.244,2.689.244,5.947,2.7,7.78s5.653,2.52,8.755,2.983a36.356,36.356,0,0,0,12.9.038c4.221-.9,8.255-3.127,10.438-6.6.969-1.538,1.557-3.277,2.683-4.721,2.326-2.983,6.448-4.14,9.693-6.254,3.546-2.32,6.147-6.835,4.059-10.369-2.014-3.4-7.254-4.152-9.356-7.5-.869-1.382-1.076-3.027-1.639-4.534S142.817,235.224,139.183,233.892Z" transform="translate(-104.083 -194.321)" fill="#0a2240"/>
            <g id="Groupe_34" data-name="Groupe 34" transform="translate(30.398 43.967)">
              <path id="Tracé_60" data-name="Tracé 60" d="M171.714,279.092a3.69,3.69,0,0,0,2.364,1.563,3.543,3.543,0,0,0,2.652-1.413,26.916,26.916,0,0,0,6.848-13.133c-.882-.5-1.732-.982-2.5-1.432a3.8,3.8,0,0,1-1.557-1.714,3.292,3.292,0,0,1-.231-1.613,46.117,46.117,0,0,1,2.6-12.095c-7.842-1.77-15.24-3.871-19.493-7.423-.519,2.189-1.132,6.473-2.439,10.719-1.395,4.5-3.571,8.943-7.261,10.857A77.807,77.807,0,0,1,171.714,279.092Z" transform="translate(-152.69 -241.832)" fill="#8b6c42"/>
              <path id="Tracé_61" data-name="Tracé 61" d="M183.637,261.36a3.281,3.281,0,0,0,.231,1.613c-4.64,5.628-15.015-1.726-19.568-10.412,1.307-4.246,1.92-8.53,2.439-10.719,4.246,3.552,11.651,5.66,19.493,7.423A46.064,46.064,0,0,0,183.637,261.36Z" transform="translate(-157.039 -241.836)" fill="#af8751"/>
            </g>
            <g id="Groupe_35" data-name="Groupe 35" transform="translate(11.575 63.185)">
              <path id="Tracé_62" data-name="Tracé 62" d="M180.932,340.909c-1.026,6.792,6.3,14.1,6.485,17.729-15.566,0-48.173.951-64.776-1.307-.757-4.19,7.442-13.614,7.442-22.92,0-1.232-.05-2.583-.15-4.034-.263-4.152-.876-9.093-1.557-14.158-1.851-13.589-4.315-28.123-2.5-31.137,3.565-5.872,11.9-9.862,16.035-11.576,1.42-.588,2.345-.907,2.414-.944,5.184,8.843,15.734,16.385,19.718,16.047,1.107-.087,4.39-1.232,6.56-12.157.844.482,1.689.925,2.527,1.357,4.121,2.145,7.986,3.915,9.1,6.673,2.939,7.261,5.822,25.565,5.184,32.076-.644,6.566-3.283,11.581-5.134,18.173-.432,1.545-.826,3.183-1.144,4.947C181.057,340.071,180.994,340.484,180.932,340.909Z" transform="translate(-122.591 -272.562)" fill="#ffc73c"/>
              <path id="Tracé_63" data-name="Tracé 63" d="M187.417,380.663c-15.566,0-48.173.951-64.776-1.307-.757-4.19,7.442-13.614,7.442-22.92,0-1.232-.05-2.583-.15-4.034-.263-4.152-.876-9.093-1.557-14.158,2.946,3.108,7.242-10.025,9.143-6.179,10.287,20.762,18.4,26.222,32.494,26.222a54.118,54.118,0,0,0,12.27-1.532c-.432,1.545-.826,3.183-1.144,4.947q-.113.6-.206,1.238C179.906,369.719,187.235,377.03,187.417,380.663Z" transform="translate(-122.591 -294.587)" fill="#fb3"/>
              <path id="Tracé_64" data-name="Tracé 64" d="M184.709,277.809c-.669,4.859-2.652,11.407-8.418,13.133-7.792,2.333-19.068-12.226-22.8-17.435,1.42-.588,2.345-.907,2.414-.944,5.184,8.843,15.734,16.385,19.718,16.047,1.107-.087,4.39-1.232,6.56-12.157C183.026,276.927,183.871,277.371,184.709,277.809Z" transform="translate(-134.167 -272.562)" fill="#fce172"/>
            </g>
            <g id="Groupe_39" data-name="Groupe 39" transform="translate(65.263 90.927)">
              <g id="Groupe_38" data-name="Groupe 38">
                <g id="Groupe_36" data-name="Groupe 36" transform="translate(0 50.874)">
                  <path id="Tracé_65" data-name="Tracé 65" d="M208.5,398.422l-.056,5.422,96.933.575.2-6.147Z" transform="translate(-208.44 -398.272)" fill="#325f73"/>
                </g>
                <g id="Groupe_37" data-name="Groupe 37" transform="translate(30.762)">
                  <path id="Tracé_66" data-name="Tracé 66" d="M365.814,319.574l-2.158-2.189-70.6-.463L257.63,368.147l1.851,1.488Z" transform="translate(-257.63 -316.922)" fill="#325f73"/>
                  <path id="Tracé_67" data-name="Tracé 67" d="M295.524,319.952,260.59,370.77l66.727.331,39.605-50.393Z" transform="translate(-258.739 -318.057)" fill="#0b2d50"/>
                </g>
              </g>
              <ellipse id="Ellipse_6" data-name="Ellipse 6" cx="7.767" cy="3.884" rx="7.767" ry="3.884" transform="translate(76.64 26.566)" fill="#62c3a1"/>
            </g>
            <g id="Groupe_48" data-name="Groupe 48" transform="translate(27.201)">
              <g id="Groupe_40" data-name="Groupe 40" transform="translate(37.559 31.964)">
                <ellipse id="Ellipse_7" data-name="Ellipse 7" cx="10.876" cy="7.173" rx="10.876" ry="7.173" transform="translate(0 21.383) rotate(-79.444)" fill="#62c3a1"/>
              </g>
              <path id="Tracé_68" data-name="Tracé 68" d="M223.938,201.449c-.725,5.141-3.021,10.806-6.366,17.066-1.176-5.128-1.926-11.376-2.964-17.623-1.057-6.26-2.4-12.52-4.734-17.636a30.618,30.618,0,0,0-1.714-3.214,11.411,11.411,0,0,1,4.115.369,13.787,13.787,0,0,1,5.628,3.071,19.734,19.734,0,0,1,5.485,8.962A20.111,20.111,0,0,1,223.938,201.449Z" transform="translate(-170.274 -174.698)" fill="#0b2d50"/>
              <g id="Groupe_41" data-name="Groupe 41" transform="translate(5.567 2.753)">
                <path id="Tracé_69" data-name="Tracé 69" d="M200.65,205.242c-.038,1.013-.106,2.045-.2,3.071-1.426,16.635-8.411,28.048-19.1,28.048-15.09,0-24.871-16.923-24.871-33.5,0-16.354,10.019-28.192,21.744-26.822,6.76.775,11.7,3.021,15.209,6.31a20.729,20.729,0,0,1,5.141,7.842,34.286,34.286,0,0,1,2.07,11.294c0,.012.013.025.013.038C200.706,202.735,200.694,203.973,200.65,205.242Z" transform="translate(-156.48 -175.93)" fill="#8b6c42"/>
                <path id="Tracé_70" data-name="Tracé 70" d="M204.79,212.488a16.718,16.718,0,0,0-2.032-4.584,47.487,47.487,0,0,1-29.561,4.747c-1.914,1.595-3.784,3.164-5.666,4.734.038-7.567.144-12.689,3.1-16.354,2.77-3.44,7.392-4.734,11.77-5.3a54.441,54.441,0,0,1,14.853.094,15.031,15.031,0,0,1,5.472,1.62,34.285,34.285,0,0,1,2.07,11.294c0,.013.013.025.013.038C204.846,209.981,204.834,211.219,204.79,212.488Z" transform="translate(-160.62 -183.176)" fill="#af8751"/>
              </g>
              <path id="Tracé_71" data-name="Tracé 71" d="M200.147,193.353a27.877,27.877,0,0,1-7.58,4.378c-8.292,3.346-19.068,4.453-27.466,4.046-4.127,9.068-5.8,12.32-6.854,20.231-4.034-3.784-7.317-10.713-8.292-16.16a36.961,36.961,0,0,1,.644-16.46,24.617,24.617,0,0,1,12.558-15.1,23.608,23.608,0,0,1,2.7-1.251,25.871,25.871,0,0,1,16.779-.2,19.983,19.983,0,0,1,7.592,4.415c4.259,3.846,6.892,9.055,8.593,12.958C199.359,191.4,199.79,192.484,200.147,193.353Z" transform="translate(-148.234 -171.531)" fill="#0b2d50"/>
              <path id="Tracé_72" data-name="Tracé 72" d="M210.189,198.277a25.462,25.462,0,0,0-1.582-5.284,18.207,18.207,0,0,0-1.488-2.8,15.329,15.329,0,0,0-7.986-6.51,29.388,29.388,0,0,0-3-3.6,23.165,23.165,0,0,0-12.927-6.817,24.558,24.558,0,0,0-11.745,1,23.612,23.612,0,0,1,2.7-1.251,25.871,25.871,0,0,1,16.779-.2,19.984,19.984,0,0,1,7.592,4.415,13.787,13.787,0,0,1,5.628,3.071,19.734,19.734,0,0,1,5.485,8.962A20.2,20.2,0,0,1,210.189,198.277Z" transform="translate(-156.525 -171.527)" fill="#225570"/>
              <g id="Groupe_44" data-name="Groupe 44" transform="translate(21.676 35.31)">
                <g id="Groupe_42" data-name="Groupe 42">
                  <path id="Tracé_73" data-name="Tracé 73" d="M182.24,229.629a10.586,10.586,0,0,1,9.743-.832" transform="translate(-182.24 -227.989)" fill="none" stroke="#0b2d50" stroke-linecap="round" stroke-miterlimit="10" stroke-width="2"/>
                  <path id="Tracé_74" data-name="Tracé 74" d="M212.78,229.59c2.389-1.782,5.929-1.964,7.773,0" transform="translate(-193.681 -228.062)" fill="none" stroke="#0b2d50" stroke-linecap="round" stroke-miterlimit="10" stroke-width="2"/>
                  <path id="Tracé_75" data-name="Tracé 75" d="M207.878,244.972a11.446,11.446,0,0,1-.488,5.316" transform="translate(-191.662 -234.351)" fill="none" stroke="#cc454e" stroke-linecap="round" stroke-miterlimit="10" stroke-width="2"/>
                  <ellipse id="Ellipse_8" data-name="Ellipse 8" cx="1.151" cy="1.814" rx="1.151" ry="1.814" transform="translate(5.641 7.844)" fill="#262d40"/>
                  <ellipse id="Ellipse_9" data-name="Ellipse 9" cx="1.151" cy="1.814" rx="1.151" ry="1.814" transform="translate(20.681 7)" fill="#262d40"/>
                </g>
                <g id="Groupe_43" data-name="Groupe 43" transform="translate(5.444 15.943)">
                  <path id="Tracé_76" data-name="Tracé 76" d="M200.291,255.946a8.837,8.837,0,0,1-.657,1.032,7.142,7.142,0,0,1-3.4,2.645h-.006a4.434,4.434,0,0,1-2.183.144c-2.351-.419-2.971-2.589-3.083-4.259a8.931,8.931,0,0,1-.019-.9,8.527,8.527,0,0,1,.088-1.126C194.781,255.546,200.291,255.946,200.291,255.946Z" transform="translate(-190.944 -253.482)" fill="#cc454e"/>
                  <path id="Tracé_77" data-name="Tracé 77" d="M200.293,255.946a8.842,8.842,0,0,1-.657,1.032,25.833,25.833,0,0,1-8.686-2.37,8.525,8.525,0,0,1,.088-1.126C194.784,255.546,200.293,255.946,200.293,255.946Z" transform="translate(-190.947 -253.482)" fill="#fff"/>
                  <path id="Tracé_78" data-name="Tracé 78" d="M196.246,260.827a4.435,4.435,0,0,1-2.183.144c-2.351-.419-2.971-2.589-3.083-4.259a6.4,6.4,0,0,1,5.266,4.115Z" transform="translate(-190.958 -254.692)" fill="#e8729b"/>
                </g>
              </g>
              <g id="Groupe_47" data-name="Groupe 47" transform="translate(0 2.597)">
                <path id="Tracé_79" data-name="Tracé 79" d="M162.166,207.163a43.231,43.231,0,0,1,3.114-15.547A22.342,22.342,0,0,1,185.7,177.451a21.931,21.931,0,0,1,15.772,6.166,16.537,16.537,0,0,0-9.387-7.173,26.167,26.167,0,0,0-15.215.794c-5.1,2.07-11.463,7.817-13.765,13.89s-3.415,15.528-3.415,15.528Z" transform="translate(-152.116 -175.68)" fill="#20986e"/>
                <g id="Groupe_45" data-name="Groupe 45" transform="translate(0 28.216)">
                  <ellipse id="Ellipse_10" data-name="Ellipse 10" cx="7.56" cy="11.456" rx="7.56" ry="11.456" transform="translate(0 1.564) rotate(-5.935)" fill="#62c3a1"/>
                  <ellipse id="Ellipse_11" data-name="Ellipse 11" cx="4.909" cy="8.636" rx="4.909" ry="8.636" transform="translate(0.556 5.197) rotate(-8.546)" fill="#20986e"/>
                </g>
                <g id="Groupe_46" data-name="Groupe 46" transform="translate(13.415 49.925)">
                  <ellipse id="Ellipse_12" data-name="Ellipse 12" cx="4.027" cy="2.508" rx="4.027" ry="2.508" transform="translate(16.204 5.879)" fill="#4bae8b"/>
                  <path id="Tracé_80" data-name="Tracé 80" d="M169.03,255.512a24.332,24.332,0,0,0,16.2,8.386" transform="translate(-169.03 -255.512)" fill="none" stroke="#4bae8b" stroke-linecap="round" stroke-miterlimit="10" stroke-width="2"/>
                </g>
              </g>
            </g>
            <g id="Groupe_53" data-name="Groupe 53" transform="translate(8.367 68)">
              <g id="Groupe_52" data-name="Groupe 52">
                <g id="Groupe_51" data-name="Groupe 51" transform="translate(3.213 34.17)">
                  <g id="Groupe_49" data-name="Groupe 49">
                    <path id="Tracé_81" data-name="Tracé 81" d="M176.282,360.208l-.388,10s-36.165,10.838-42.138,7.411c-2.914-1.676-5.635-10.894-7.667-19.893-2.126-9.456-3.49-18.661-3.49-18.661l21.2-4.152s.013,12.926.732,20.4c.256,2.783.625,4.809,1.119,5.14C147.521,361.684,176.282,360.208,176.282,360.208Z" transform="translate(-122.6 -334.906)" fill="#8b6c42"/>
                    <path id="Tracé_82" data-name="Tracé 82" d="M144.532,355.3c-3.852,1.251-11.288,3.183-18.442,2.42-2.126-9.456-3.49-18.661-3.49-18.661l21.2-4.152C143.8,334.9,143.813,347.822,144.532,355.3Z" transform="translate(-122.6 -334.902)" fill="#8b6c42"/>
                  </g>
                  <g id="Groupe_50" data-name="Groupe 50" transform="translate(50.799 20.455)">
                    <path id="Tracé_83" data-name="Tracé 83" d="M205.681,372.558c5.378-1.151,14.484-3.915,18.261-4.865,2.683-.675,9.668,2.939,11.513,6.348.807,1.488,1.57,9.918-1.226,9.049-1.4-.438-1.169-4.052-1.607-5.528A6.513,6.513,0,0,0,229.4,374.2c1.157,2.883,1.113,5.4.988,8.511a4.413,4.413,0,0,1-.4,2,1.436,1.436,0,0,1-1.689.757c-.638-.263-.857-1.057-1-1.751A56.931,56.931,0,0,1,226.1,376.2c.05,2.67-.006,5.347-.175,8.011-.125,2.039-1.138,3.158-2.383,2.8-.557-.156-.782-.669-1.019-1.345-.375,1.307-1.313,2.752-2.527,2.2-.738-.331-1.194-3-1.063-5.735a16.047,16.047,0,0,1-7.98,2.2c-2.714.125-5.491-.382-7.123-2.226A47.98,47.98,0,0,1,205.681,372.558Z" transform="translate(-203.83 -367.611)" fill="#8b6c42"/>
                    <path id="Tracé_84" data-name="Tracé 84" d="M233.477,391.96a19.121,19.121,0,0,0-.557-6.448" transform="translate(-214.728 -374.317)" fill="#8b6c42" stroke="#a9834e" stroke-linecap="round" stroke-miterlimit="10" stroke-width="1"/>
                  </g>
                </g>
                <path id="Tracé_85" data-name="Tracé 85" d="M139.493,293.464c-1.538-4.334-7.173-13.2-7.173-13.2s-8.6,3.577-11.651,9.65c-5.166,10.281-2.539,39.8-2.539,39.8,6.96,2.914,20.931,2.958,26.879,2.12C145.009,331.83,142.576,302.125,139.493,293.464Z" transform="translate(-117.462 -280.262)" fill="#ffc73c"/>
              </g>
              <path id="Tracé_86" data-name="Tracé 86" d="M154.44,304.272a191.207,191.207,0,0,1,4,31.95" transform="translate(-131.315 -289.257)" fill="none" stroke="#f2ae30" stroke-linecap="round" stroke-miterlimit="10" stroke-width="1"/>
            </g>
          </g>
          <rect id="Rectangle_4" data-name="Rectangle 4" width="246.573" height="6.185" transform="translate(17.261 146.166)" fill="#0b2d50"/>
        </g>
      </g>
    </g>
  </g>
</svg>
