<svg xmlns="http://www.w3.org/2000/svg" width="35.382" height="35.382" viewBox="0 0 35.382 35.382">
  <g id="_Group_" data-name="&lt;Group&gt;" transform="translate(-361.318 -96.173)">
    <g id="_Group_2" data-name="&lt;Group&gt;">
      <path id="_Path_" data-name="&lt;Path&gt;" d="M396.7,113.864a17.691,17.691,0,1,0-20.455,17.476V118.977h-4.492v-5.114h4.492v-3.9c0-4.434,2.641-6.883,6.682-6.883a27.208,27.208,0,0,1,3.96.346v4.354h-2.231a2.557,2.557,0,0,0-2.883,2.763v3.319h4.907l-.784,5.114h-4.122v12.362A17.7,17.7,0,0,0,396.7,113.864Z" fill="#337fff"/>
      <path id="_Path_2" data-name="&lt;Path&gt;" d="M385.9,118.977l.784-5.114h-4.907v-3.319a2.557,2.557,0,0,1,2.883-2.763h2.231v-4.354a27.208,27.208,0,0,0-3.96-.346c-4.041,0-6.682,2.449-6.682,6.883v3.9h-4.492v5.114h4.492v12.362a17.875,17.875,0,0,0,5.528,0V118.977Z" fill="#fff"/>
    </g>
  </g>
</svg>
